<svg width="87" height="87" viewBox="0 0 87 87" fill="none" xmlns="http://www.w3.org/2000/svg">
<circle cx="43.9493" cy="43.6702" r="39.4556" fill="white" stroke="#0D073B" stroke-width="7"/>
<path d="M54.7736 69.8386V60.3877C54.8648 59.2232 54.7082 58.0526 54.3143 56.9536C53.9203 55.8547 53.298 54.8525 52.4888 54.0139C60.1212 53.1591 68.1427 50.2531 68.1427 36.9193C68.142 33.5097 66.8366 30.2309 64.4966 27.7615C65.6046 24.7785 65.5263 21.4813 64.2778 18.5548C64.2778 18.5548 61.4095 17.7001 54.7736 22.1691C49.2024 20.6521 43.3297 20.6521 37.7585 22.1691C31.1226 17.7001 28.2544 18.5548 28.2544 18.5548C27.0059 21.4813 26.9275 24.7785 28.0356 27.7615C25.6781 30.2492 24.3713 33.5577 24.3895 36.9925C24.3895 50.2286 32.4109 53.1347 40.0434 54.0871C39.2437 54.9174 38.6269 55.9075 38.2333 56.993C37.8396 58.0786 37.6778 59.2352 37.7585 60.3877V69.8386M37.7585 62.5123C25.6049 66.1754 25.6049 56.4071 20.7434 55.1861L37.7585 62.5123Z" stroke="#0D073B" stroke-width="2" stroke-linecap="round" stroke-linejoin="round"/>
</svg>
